<svg xmlns="http://www.w3.org/2000/svg" id="Layer_2" data-name="Layer 2" viewBox="0 0 214.86 48.51"><defs><style>      .cls-1 {        fill: #1d1d1b;      }      .cls-2 {        fill: #fff;      }      .cls-3 {        fill: #e84e0f;      }    </style></defs><g id="Capa_1" data-name="Capa 1"><g><path class="cls-3" d="M31.92,48.51h-15.34C7.44,48.51,0,41.07,0,31.93v-15.34C0,7.44,7.44,0,16.59,0h15.34c9.15,0,16.59,7.44,16.59,16.59v15.34c0,9.15-7.44,16.59-16.59,16.59"></path><path class="cls-2" d="M41.13,29.68c-1.61-2.85-3.26-5.67-4.9-8.5h-1.59l-.12.02c-.19.33-.47.82-.96.82H15.57c-.49,0-.77-.49-.95-.81v-.02s-.12-.01-.12-.01h-1.57c-1.62,2.84-3.25,5.68-4.89,8.51-.41.7-.47,1.24-.03,1.97,2.57,4.33,5.07,8.7,7.66,13.02.23.39.87.76,1.32.76,5.04.03,10.08-.03,15.11-.01.79,0,1.22-.25,1.59-.92,1.21-2.21,2.49-4.39,3.74-6.58,1.25-2.19,2.55-4.36,3.72-6.58.23-.44.23-1.23-.02-1.66M31.11,34.41c-2.1,3.65-6.62,4.87-10.28,2.77-3.67-2.1-4.91-6.6-2.85-10.28,2.06-3.67,6.76-4.94,10.41-2.8,3.64,2.13,4.83,6.64,2.72,10.31"></path><path class="cls-2" d="M37.65,17.81c-.1-.93-.34-1.14-.56-1.32-.2-.17-.45-.37-.47-.91-.3-3.51-2.2-6.87-5.12-9.07-.76,4.45-1.99,8.08-2.43,9.28-.1.27-.16.42-.16.43l-.98,2.49.34-2.65.04-.26c.18-1.4.38-2.73.58-4.02.38-2.48.7-4.62.76-6.41.02-.48-.12-1.05-.38-1.17-2.98-1.32-6.39-1.32-9.37,0-.27.12-.4.69-.39,1.17.06,1.79.38,3.93.76,6.41.2,1.29.4,2.63.58,4.04l.03.23.34,2.65-.98-2.49s-.06-.15-.15-.4c-.43-1.17-1.68-4.81-2.44-9.31-2.92,2.21-4.82,5.56-5.12,9.08-.03.52-.27.73-.47.9-.22.18-.46.39-.56,1.32-.09.88-.12,1.72-.09,2.55l.03.15h3.09c.44,0,.63.23.7.37.07.12.27.47.37.47h17.98c.1,0,.3-.35.37-.47.08-.14.26-.37.7-.37h3.09l.03-.15c.03-.83,0-1.67-.09-2.55"></path><path class="cls-2" d="M24.54,36.56c-.83,0-1.6-.16-2.32-.47-.72-.31-1.34-.74-1.88-1.29-.53-.54-.95-1.17-1.26-1.89-.31-.72-.46-1.48-.46-2.29s.15-1.57.46-2.29c.31-.72.73-1.35,1.26-1.89.53-.54,1.16-.97,1.88-1.28.72-.31,1.49-.47,2.32-.47.75,0,1.47.14,2.16.41.69.27,1.33.67,1.92,1.19l-2.31,2.02c-.56-.39-1.14-.59-1.76-.59-.4,0-.78.08-1.13.23-.35.15-.65.36-.89.63-.25.27-.45.58-.59.93-.14.35-.22.72-.22,1.1s.07.77.22,1.12c.14.35.34.66.59.92.25.27.54.48.89.64.34.16.71.24,1.12.24.46,0,.89-.11,1.29-.32.4-.21.75-.51,1.05-.9l2.38,1.93c-.6.73-1.3,1.3-2.11,1.7-.81.4-1.68.6-2.6.6"></path><path class="cls-2" d="M39.23,21.18c.19,0,.38.05.56.15.18.1.32.24.43.42.1.18.15.37.15.57s-.05.39-.15.57c-.1.18-.24.32-.42.42-.18.1-.37.15-.57.15s-.39-.05-.57-.15c-.18-.1-.32-.24-.43-.42-.1-.18-.15-.37-.15-.57s.05-.39.15-.57c.1-.18.25-.33.43-.42.18-.1.37-.15.56-.15M39.23,21.37c-.16,0-.32.04-.47.12-.15.08-.27.2-.36.35-.09.15-.13.31-.13.48s.04.32.13.47c.08.15.2.27.35.35.15.08.31.13.47.13s.32-.04.47-.13c.15-.08.27-.2.35-.35.08-.15.13-.31.13-.47s-.04-.33-.13-.48c-.08-.15-.21-.27-.36-.35-.15-.08-.31-.12-.47-.12M38.73,22.96v-1.23h.42c.14,0,.25.01.31.04l.15.12.06.18c0,.09-.03.17-.1.24-.07.07-.15.1-.26.11l.11.07s.11.13.18.24l.15.24h-.24l-.11-.19c-.09-.15-.15-.25-.21-.29l-.16-.04h-.12v.52h-.2ZM38.93,22.26h.24c.11,0,.19-.02.23-.05l.06-.14-.03-.1-.09-.07s-.1-.02-.2-.02h-.23v.37Z"></path><path class="cls-1" d="M213.27,22.68c.27,0,.53.07.78.21.25.14.45.33.59.59.14.26.21.52.21.8s-.07.54-.21.79c-.14.25-.33.45-.59.59-.25.14-.52.21-.79.21s-.54-.07-.79-.21c-.25-.14-.45-.34-.59-.59-.14-.25-.21-.51-.21-.79s.07-.54.21-.8c.14-.26.34-.45.59-.59.25-.14.51-.21.78-.21M213.27,22.94c-.22,0-.44.06-.65.17-.21.11-.38.28-.5.49-.12.21-.18.43-.18.66s.06.45.17.66.28.37.49.49c.21.12.43.18.66.18s.45-.06.66-.18c.21-.12.37-.28.49-.49.12-.21.17-.43.17-.66s-.06-.45-.18-.66c-.12-.21-.28-.38-.49-.49-.21-.11-.43-.17-.65-.17M212.58,25.15v-1.71h.59c.2,0,.35.02.44.05l.21.17.08.25c0,.12-.04.23-.13.33-.09.09-.21.14-.35.15l.14.09c.07.07.15.18.25.34l.21.33h-.34l-.15-.27c-.12-.21-.22-.34-.29-.4-.05-.04-.12-.06-.22-.06h-.16v.73h-.28ZM212.85,24.19h.34c.16,0,.27-.02.33-.07l.09-.19-.04-.14-.12-.09s-.14-.03-.28-.03h-.31v.52Z"></path><path class="cls-3" d="M73.24,19.47c-.73,0-1.41-.14-2.04-.41-.63-.27-1.18-.65-1.65-1.13-.47-.48-.84-1.03-1.11-1.67-.27-.63-.41-1.3-.41-2.01s.13-1.38.41-2.02c.27-.63.64-1.19,1.11-1.66.47-.48,1.02-.86,1.65-1.13.63-.27,1.31-.41,2.04-.41.66,0,1.3.12,1.91.36.61.24,1.17.59,1.69,1.05l-2.03,1.78c-.49-.35-1.01-.52-1.55-.52-.36,0-.69.07-.99.2-.3.14-.57.32-.79.56-.22.24-.39.51-.52.82-.13.31-.19.63-.19.97s.06.68.19.98c.13.31.3.58.52.81.22.23.48.42.78.56.3.14.63.21.98.21.41,0,.79-.09,1.14-.28.35-.19.66-.45.92-.79l2.1,1.7c-.53.64-1.15,1.14-1.86,1.49-.72.35-1.48.53-2.3.53"></path><path class="cls-3" d="M82.26,19.47c-.73,0-1.41-.14-2.05-.41-.64-.27-1.19-.64-1.66-1.11-.48-.47-.85-1.02-1.12-1.66-.27-.64-.41-1.32-.41-2.03s.14-1.4.41-2.03c.27-.64.65-1.19,1.12-1.66.47-.47,1.03-.84,1.66-1.12.64-.27,1.32-.41,2.05-.41s1.4.14,2.04.41c.64.28,1.2.65,1.67,1.12.48.47.85,1.02,1.12,1.66.28.63.41,1.31.41,2.03s-.14,1.4-.41,2.03c-.27.64-.65,1.19-1.12,1.66-.48.47-1.03.84-1.67,1.11-.64.27-1.32.41-2.04.41M82.26,11.55c-.37,0-.72.08-1.04.22-.32.15-.59.35-.82.59-.23.24-.41.53-.54.86-.13.33-.2.67-.2,1.04s.06.7.2,1.03c.13.33.31.62.54.86.23.24.5.44.82.59.32.15.66.22,1.04.22s.72-.07,1.04-.22c.32-.15.59-.35.82-.59.23-.25.41-.53.54-.86.13-.33.2-.67.2-1.03s-.07-.71-.2-1.04c-.13-.33-.31-.61-.54-.86-.23-.25-.5-.44-.82-.59-.32-.15-.66-.22-1.04-.22"></path><polygon class="cls-3" points="96.04 19.16 96.04 14.09 93.93 17.57 93.8 17.68 93.65 17.7 93.48 17.68 93.36 17.57 91.25 14.09 91.25 19.16 88.67 19.16 88.67 9.3 91.08 9.3 91.3 9.42 93.64 13.32 95.99 9.42 96.19 9.3 98.62 9.3 98.62 19.16 96.04 19.16"></polygon><rect class="cls-3" x="99.94" y="9.3" width="2.66" height="9.86"></rect><path class="cls-3" d="M107.62,19.47c-.66,0-1.32-.08-1.96-.23-.65-.16-1.27-.37-1.86-.65l-.13-.05-.1-.09.05-.1.13-.22c.05-.09.11-.19.18-.3.07-.11.14-.23.2-.35.14-.24.28-.46.41-.67.13-.21.22-.36.27-.46.11.04.22.09.32.15.46.23.92.4,1.38.53.46.12.95.18,1.47.18.14,0,.3,0,.46-.02.17-.01.32-.04.45-.1.13-.05.25-.13.34-.24.09-.1.13-.26.13-.45,0-.09-.03-.18-.08-.25l-.19-.19-.24-.15-.24-.1c-.18-.07-.36-.12-.55-.15-.19-.03-.37-.07-.56-.11-.25-.06-.49-.11-.72-.17-.24-.05-.47-.11-.69-.18-.23-.07-.45-.14-.65-.22-.21-.08-.4-.17-.58-.29-.36-.22-.65-.51-.87-.88-.22-.37-.32-.86-.32-1.47,0-.21.02-.42.07-.64.05-.22.12-.42.21-.62.19-.39.43-.71.73-.97.3-.26.62-.45.98-.6.36-.14.74-.25,1.14-.3.4-.06.8-.09,1.19-.09.65,0,1.3.08,1.93.24.64.16,1.24.42,1.82.77-.21.36-.42.71-.62,1.05-.2.35-.4.7-.6,1.05-.49-.24-.97-.43-1.43-.58-.46-.15-.96-.23-1.49-.23-.13,0-.26,0-.4.02-.14.01-.27.04-.39.1-.12.05-.22.12-.29.22-.08.1-.11.23-.11.39,0,.12.03.22.08.31.06.09.17.18.32.25.16.07.35.14.58.2.23.06.48.12.75.17.27.06.55.12.85.2.29.08.58.16.87.26.29.1.57.22.83.36.26.14.49.3.69.49.2.19.36.42.48.68.09.2.16.4.19.63.03.23.05.45.05.67,0,.64-.13,1.17-.39,1.58-.26.42-.61.74-1.03.98-.42.24-.9.41-1.44.51-.53.1-1.07.15-1.6.15"></path><path class="cls-3" d="M118.65,19.16l-.51-1.36h-3.04l-.51,1.36h-2.78l3.65-9.86h2.33l3.65,9.86h-2.78ZM116.63,12.9l-.79,2.61h1.56l-.77-2.61Z"></path><path class="cls-3" d="M128.44,19.16l-1.72-3.05h-1.67v3.05s-2.71,0-2.71,0v-9.86h4.95c.24,0,.48.05.72.13.24.09.48.21.71.36.23.15.44.32.64.5.2.19.36.38.5.57.17.25.3.53.39.86.09.33.13.64.13.93,0,.49-.11.95-.34,1.37s-.55.78-.95,1.07l2.31,4.07h-2.96ZM126.52,11.5h-1.54v2.12h1.54c.15,0,.3-.03.43-.08.13-.05.25-.13.35-.23.1-.1.18-.21.24-.33.06-.12.09-.26.09-.42s-.03-.29-.09-.42c-.06-.13-.14-.24-.24-.33-.1-.1-.22-.17-.35-.23-.14-.05-.28-.08-.43-.08"></path><rect class="cls-3" x="131.85" y="9.3" width="2.66" height="9.86"></rect><path class="cls-3" d="M141.67,19.16l-.51-1.36h-3.04l-.51,1.36h-2.78l3.65-9.86h2.33l3.65,9.86h-2.78ZM139.65,12.9l-.79,2.61h1.56l-.78-2.61Z"></path><polygon class="cls-3" points="151.85 11.74 149.14 11.74 149.14 19.16 146.46 19.16 146.46 11.74 143.75 11.74 143.57 11.56 143.57 9.3 152.03 9.3 152.03 11.56 151.85 11.74"></polygon><path class="cls-3" d="M157.03,19.47c-.73,0-1.41-.14-2.05-.41-.64-.27-1.19-.64-1.66-1.11-.48-.47-.85-1.02-1.13-1.66-.27-.64-.41-1.32-.41-2.03s.14-1.4.41-2.03c.28-.64.65-1.19,1.13-1.66.47-.47,1.03-.84,1.66-1.12.63-.27,1.32-.41,2.05-.41s1.4.14,2.04.41c.64.28,1.2.65,1.67,1.12.48.47.85,1.02,1.13,1.66.27.63.41,1.31.41,2.03s-.14,1.4-.41,2.03c-.28.64-.65,1.19-1.13,1.66-.47.47-1.03.84-1.67,1.11-.64.27-1.32.41-2.04.41M157.03,11.55c-.37,0-.72.08-1.04.22-.32.15-.59.35-.82.59-.23.24-.41.53-.54.86-.13.33-.2.67-.2,1.04s.07.7.2,1.03c.13.33.31.62.54.86.23.24.5.44.82.59.32.15.66.22,1.04.22s.72-.07,1.04-.22c.32-.15.59-.35.82-.59.23-.25.41-.53.54-.86.13-.33.2-.67.2-1.03s-.07-.71-.2-1.04c-.13-.33-.31-.61-.54-.86-.23-.25-.5-.44-.82-.59-.32-.15-.66-.22-1.04-.22"></path><path class="cls-3" d="M175.3,19.16h-4.41v-9.86h4.41c.69,0,1.33.13,1.93.39.6.26,1.13.61,1.58,1.05.45.44.8.97,1.06,1.57.26.6.39,1.24.39,1.92s-.13,1.32-.39,1.92c-.26.6-.61,1.12-1.06,1.57-.45.45-.97.8-1.58,1.05-.6.26-1.24.39-1.93.39M174.99,11.7h-1.51v5.06h1.51c.36,0,.69-.07,1-.2.31-.13.58-.31.81-.54.23-.23.41-.5.54-.81.13-.31.2-.64.2-.99s-.07-.67-.2-.98c-.13-.31-.31-.58-.54-.81-.23-.23-.5-.41-.81-.54-.31-.13-.64-.2-1-.2"></path><polygon class="cls-3" points="181.14 19.16 181.14 9.3 189.01 9.3 189.01 11.65 183.71 11.65 183.71 13.06 188.71 13.06 188.71 15.41 183.71 15.41 183.71 16.82 189.01 16.82 189.01 19.16 181.14 19.16"></polygon><polygon class="cls-3" points="190.35 19.16 190.35 9.3 193.08 9.3 193.08 16.72 198.26 16.72 198.26 19.16 190.35 19.16"></polygon><path class="cls-1" d="M61.74,40.3c-1.12,0-2.17-.21-3.14-.64-.97-.42-1.82-1-2.54-1.74-.73-.74-1.3-1.59-1.71-2.56-.42-.97-.63-2.01-.63-3.1s.21-2.13.63-3.1c.42-.97.99-1.83,1.71-2.56.72-.74,1.57-1.32,2.54-1.74.97-.42,2.02-.64,3.14-.64,1.02,0,2,.19,2.94.56.94.37,1.81.91,2.6,1.61l-3.13,2.74c-.76-.54-1.55-.8-2.39-.8-.55,0-1.06.1-1.53.31-.47.21-.88.5-1.21.86-.34.37-.61.79-.8,1.26-.2.48-.29.98-.29,1.5s.1,1.04.29,1.52c.2.48.46.89.8,1.25.34.36.74.65,1.2.86.46.21.97.32,1.52.32.63,0,1.21-.14,1.75-.43.54-.29,1.01-.69,1.42-1.21l3.23,2.62c-.81.99-1.77,1.76-2.87,2.3-1.1.54-2.28.81-3.53.81"></path><path class="cls-1" d="M75.64,40.3c-1.12,0-2.17-.21-3.15-.63s-1.83-.99-2.57-1.71c-.73-.72-1.31-1.58-1.73-2.55s-.64-2.02-.64-3.13.21-2.15.64-3.13c.42-.98,1-1.83,1.73-2.55.73-.72,1.59-1.3,2.57-1.72.98-.42,2.03-.64,3.15-.64s2.16.21,3.14.64c.99.42,1.84,1,2.57,1.72.73.72,1.31,1.58,1.73,2.55.42.98.64,2.02.64,3.13s-.21,2.15-.64,3.13-1,1.83-1.73,2.55c-.73.72-1.59,1.3-2.57,1.71-.99.42-2.03.63-3.14.63M75.64,28.1c-.58,0-1.11.11-1.6.34-.49.23-.91.53-1.26.91-.35.38-.63.82-.83,1.32-.2.5-.3,1.04-.3,1.6s.1,1.08.3,1.59c.2.51.48.95.83,1.33.35.38.77.68,1.26.91.49.23,1.02.34,1.6.34s1.11-.11,1.6-.34c.49-.23.91-.53,1.26-.91s.63-.82.83-1.33c.2-.51.3-1.04.3-1.59s-.1-1.09-.3-1.6c-.2-.5-.48-.94-.83-1.32s-.77-.68-1.26-.91c-.49-.23-1.02-.34-1.6-.34"></path><polygon class="cls-1" points="94.12 39.81 88.85 31.71 88.85 39.81 84.8 39.81 84.8 24.64 88.84 24.64 94.12 32.82 94.12 24.64 98.19 24.64 98.19 39.81 94.12 39.81"></polygon><path class="cls-1" d="M106.14,40.3c-1.02,0-2.02-.12-3.02-.36-1-.24-1.95-.58-2.87-1-.03,0-.09-.03-.2-.08-.1-.07-.16-.11-.16-.14,0-.01.03-.07.08-.16.05-.09.12-.2.2-.34.08-.14.17-.29.27-.47.1-.17.21-.35.31-.53.22-.36.43-.71.63-1.04.2-.33.33-.56.41-.7.17.07.33.14.49.24.7.35,1.41.62,2.12.81.71.19,1.46.28,2.26.28.22,0,.46-.01.71-.03.25-.02.49-.07.69-.15.21-.08.38-.2.52-.36.14-.16.2-.4.2-.7,0-.14-.04-.27-.12-.38-.08-.11-.18-.21-.29-.29s-.24-.16-.37-.23c-.13-.07-.25-.12-.37-.16-.27-.11-.55-.18-.84-.24-.29-.05-.57-.11-.86-.18-.38-.09-.75-.18-1.12-.26-.36-.08-.72-.17-1.06-.27-.35-.11-.69-.22-1.01-.34-.32-.12-.62-.27-.89-.44-.56-.34-1.01-.79-1.34-1.36s-.5-1.32-.5-2.26c0-.33.04-.66.11-.99.07-.33.18-.65.32-.95.29-.6.66-1.1,1.11-1.49.46-.39.96-.7,1.52-.92.55-.22,1.14-.38,1.75-.47.61-.09,1.22-.14,1.84-.14,1.01,0,2,.12,2.98.36.98.24,1.91.64,2.8,1.19-.33.55-.64,1.09-.95,1.62-.31.53-.62,1.07-.93,1.62-.76-.36-1.49-.66-2.2-.9-.71-.23-1.48-.35-2.3-.35-.2,0-.4,0-.62.03-.22.02-.41.07-.6.15-.18.08-.33.19-.45.34-.12.15-.18.35-.18.6,0,.18.04.34.12.47.09.14.26.27.5.38.24.11.54.21.89.3.35.09.74.18,1.15.27.42.08.86.18,1.31.3.44.12.89.25,1.34.4.45.15.87.33,1.27.55.4.22.75.47,1.07.76.31.29.56.64.74,1.04.14.3.24.62.3.97.05.35.08.69.08,1.03,0,.99-.2,1.8-.61,2.44-.41.64-.93,1.14-1.59,1.51-.65.37-1.39.63-2.21.78s-1.64.23-2.47.23"></path><polygon class="cls-1" points="126.44 28.4 122.27 28.4 122.27 39.83 118.14 39.83 118.14 28.4 113.97 28.4 113.69 28.12 113.69 24.64 126.71 24.64 126.71 28.12 126.44 28.4"></polygon><path class="cls-1" d="M136.83,39.83l-2.64-4.7h-2.56l.02,4.7h-4.19v-15.19h7.61c.37,0,.74.07,1.11.21.38.14.74.32,1.1.55.35.23.68.49.98.77.3.29.55.58.76.88.26.38.46.82.6,1.32.14.5.21.98.21,1.44,0,.76-.18,1.46-.53,2.11-.35.65-.84,1.2-1.47,1.64l3.56,6.26h-4.56ZM133.87,28.03h-2.37v3.27h2.37c.23,0,.46-.04.67-.13.21-.08.39-.2.55-.35.16-.15.28-.32.37-.52.09-.19.14-.41.14-.64s-.04-.45-.14-.64c-.09-.2-.22-.37-.37-.52-.16-.15-.34-.27-.55-.35-.21-.09-.43-.13-.67-.13"></path><path class="cls-1" d="M154.43,34.27c0,.69-.11,1.34-.34,1.96-.23.61-.55,1.17-.96,1.66-.41.5-.9.92-1.46,1.28-.56.36-1.17.64-1.82.83-.29.09-.58.16-.88.22-.3.05-.6.08-.9.08s-.6-.03-.89-.08c-.29-.05-.58-.12-.87-.22-.65-.2-1.26-.47-1.82-.83-.56-.36-1.05-.79-1.46-1.28-.41-.5-.73-1.05-.96-1.66s-.34-1.27-.34-1.96v-9.63h4.23v9.38c0,.29.06.55.18.79.12.24.27.45.47.63.2.18.42.31.68.41.25.1.52.15.79.15s.56-.05.81-.15c.25-.1.48-.23.68-.41.2-.17.35-.38.47-.63.12-.24.18-.51.18-.79v-9.38h4.23v9.63Z"></path><path class="cls-1" d="M163.41,40.3c-1.12,0-2.17-.21-3.14-.64-.97-.42-1.82-1-2.54-1.74-.72-.74-1.29-1.59-1.71-2.56-.42-.97-.63-2.01-.63-3.1s.21-2.13.63-3.1c.42-.97.99-1.83,1.71-2.56s1.57-1.32,2.54-1.74c.97-.42,2.02-.64,3.14-.64,1.02,0,2,.19,2.93.56.94.37,1.81.91,2.6,1.61l-3.13,2.74c-.76-.54-1.55-.8-2.39-.8-.55,0-1.06.1-1.53.31-.47.21-.87.5-1.21.86-.34.37-.61.79-.8,1.26-.2.48-.29.98-.29,1.5s.1,1.04.29,1.52c.2.48.46.89.8,1.25.34.36.74.65,1.2.86.46.21.97.32,1.52.32.63,0,1.21-.14,1.75-.43.54-.29,1.01-.69,1.42-1.21l3.23,2.62c-.81.99-1.77,1.76-2.87,2.3-1.1.54-2.28.81-3.53.81"></path><polygon class="cls-1" points="182.57 28.4 178.4 28.4 178.4 39.83 174.27 39.83 174.27 28.4 170.1 28.4 169.83 28.12 169.83 24.64 182.85 24.64 182.85 28.12 182.57 28.4"></polygon><path class="cls-1" d="M190.56,40.3c-1.12,0-2.17-.21-3.15-.63s-1.83-.99-2.56-1.71c-.73-.72-1.31-1.58-1.73-2.55s-.64-2.02-.64-3.13.21-2.15.64-3.13c.42-.98,1-1.83,1.73-2.55.73-.72,1.58-1.3,2.56-1.72.98-.42,2.03-.64,3.15-.64s2.16.21,3.14.64c.99.42,1.84,1,2.57,1.72.73.72,1.31,1.58,1.73,2.55.42.98.64,2.02.64,3.13s-.21,2.15-.64,3.13c-.42.98-1,1.83-1.73,2.55-.73.72-1.59,1.3-2.57,1.71-.98.42-2.03.63-3.14.63M190.56,28.1c-.57,0-1.11.11-1.6.34-.49.23-.91.53-1.26.91s-.63.82-.83,1.32c-.2.5-.3,1.04-.3,1.6s.1,1.08.3,1.59c.2.51.48.95.83,1.33s.77.68,1.26.91c.49.23,1.02.34,1.6.34s1.11-.11,1.6-.34c.49-.23.91-.53,1.26-.91.35-.38.63-.82.83-1.33.2-.51.3-1.04.3-1.59s-.1-1.09-.3-1.6c-.2-.5-.48-.94-.83-1.32-.35-.38-.77-.68-1.26-.91-.49-.23-1.02-.34-1.6-.34"></path><path class="cls-1" d="M209.49,39.83l-2.64-4.7h-2.56l.02,4.7h-4.19v-15.19h7.61c.37,0,.74.07,1.12.21.38.14.74.32,1.1.55.35.23.68.49.98.77.3.29.56.58.76.88.26.38.46.82.6,1.32.14.5.21.98.21,1.44,0,.76-.18,1.46-.53,2.11-.35.65-.84,1.2-1.47,1.64l3.56,6.26h-4.56ZM206.53,28.03h-2.37v3.27h2.37c.23,0,.46-.04.67-.13.21-.08.39-.2.55-.35.16-.15.28-.32.37-.52.09-.19.14-.41.14-.64s-.05-.45-.14-.64c-.09-.2-.22-.37-.37-.52-.16-.15-.34-.27-.55-.35-.21-.09-.43-.13-.67-.13"></path></g></g></svg>